<mxfile host="app.diagrams.net" modified="2024-02-07T18:18:52.654Z" agent="Mozilla/5.0 (Windows NT 10.0; Win64; x64) AppleWebKit/537.36 (KHTML, like Gecko) Chrome/121.0.0.0 Safari/537.36" etag="PNO0YwCPSpSnZC1w1a2o" version="22.1.21" type="github">
  <diagram name="Page-1" id="c7558073-3199-34d8-9f00-42111426c3f3">
    <mxGraphModel dx="1323" dy="757" grid="1" gridSize="10" guides="1" tooltips="1" connect="1" arrows="1" fold="1" page="1" pageScale="1" pageWidth="826" pageHeight="1169" background="none" math="0" shadow="0">
      <root>
        <mxCell id="0" />
        <mxCell id="1" parent="0" />
        <mxCell id="pxlW1rMQ2wDPE4SaXr1n-96" value="Entities" style="rounded=0;whiteSpace=wrap;html=1;" vertex="1" parent="1">
          <mxGeometry x="81" y="80" width="120" height="60" as="geometry" />
        </mxCell>
        <mxCell id="pxlW1rMQ2wDPE4SaXr1n-97" value="Processes" style="rounded=0;whiteSpace=wrap;html=1;" vertex="1" parent="1">
          <mxGeometry x="81" y="170" width="120" height="60" as="geometry" />
        </mxCell>
        <mxCell id="pxlW1rMQ2wDPE4SaXr1n-98" value="Dataflows" style="rounded=0;whiteSpace=wrap;html=1;" vertex="1" parent="1">
          <mxGeometry x="81" y="260" width="120" height="60" as="geometry" />
        </mxCell>
        <mxCell id="pxlW1rMQ2wDPE4SaXr1n-99" value="Datastores" style="rounded=0;whiteSpace=wrap;html=1;" vertex="1" parent="1">
          <mxGeometry x="81" y="350" width="120" height="60" as="geometry" />
        </mxCell>
        <mxCell id="pxlW1rMQ2wDPE4SaXr1n-100" value="Employees" style="shape=cube;whiteSpace=wrap;html=1;boundedLbl=1;backgroundOutline=1;darkOpacity=0.05;darkOpacity2=0.1;size=10;" vertex="1" parent="1">
          <mxGeometry x="222" y="85" width="120" height="50" as="geometry" />
        </mxCell>
        <mxCell id="pxlW1rMQ2wDPE4SaXr1n-101" value="store clerk" style="shape=cube;whiteSpace=wrap;html=1;boundedLbl=1;backgroundOutline=1;darkOpacity=0.05;darkOpacity2=0.1;size=10;" vertex="1" parent="1">
          <mxGeometry x="347" y="85" width="120" height="50" as="geometry" />
        </mxCell>
        <mxCell id="pxlW1rMQ2wDPE4SaXr1n-102" value="supplier" style="shape=cube;whiteSpace=wrap;html=1;boundedLbl=1;backgroundOutline=1;darkOpacity=0.05;darkOpacity2=0.1;size=10;" vertex="1" parent="1">
          <mxGeometry x="476" y="85" width="120" height="50" as="geometry" />
        </mxCell>
        <mxCell id="pxlW1rMQ2wDPE4SaXr1n-103" value="warehouse manager" style="shape=cube;whiteSpace=wrap;html=1;boundedLbl=1;backgroundOutline=1;darkOpacity=0.05;darkOpacity2=0.1;size=10;" vertex="1" parent="1">
          <mxGeometry x="606" y="85" width="120" height="50" as="geometry" />
        </mxCell>
        <mxCell id="pxlW1rMQ2wDPE4SaXr1n-104" value="submit requisitions" style="ellipse;whiteSpace=wrap;html=1;aspect=fixed;" vertex="1" parent="1">
          <mxGeometry x="237" y="160" width="80" height="80" as="geometry" />
        </mxCell>
        <mxCell id="pxlW1rMQ2wDPE4SaXr1n-105" value="requisitions&lt;br&gt;copied" style="ellipse;whiteSpace=wrap;html=1;aspect=fixed;" vertex="1" parent="1">
          <mxGeometry x="326" y="160" width="80" height="80" as="geometry" />
        </mxCell>
        <mxCell id="pxlW1rMQ2wDPE4SaXr1n-106" value="inventory&lt;br&gt;check" style="ellipse;whiteSpace=wrap;html=1;aspect=fixed;" vertex="1" parent="1">
          <mxGeometry x="411" y="160" width="80" height="80" as="geometry" />
        </mxCell>
        <mxCell id="pxlW1rMQ2wDPE4SaXr1n-107" value="prepare&lt;br&gt;purchase&lt;br&gt;order" style="ellipse;whiteSpace=wrap;html=1;aspect=fixed;" vertex="1" parent="1">
          <mxGeometry x="496" y="160" width="80" height="80" as="geometry" />
        </mxCell>
        <mxCell id="pxlW1rMQ2wDPE4SaXr1n-108" value="prepare&lt;br&gt;daily&lt;br&gt;receiving&lt;br&gt;report" style="ellipse;whiteSpace=wrap;html=1;aspect=fixed;" vertex="1" parent="1">
          <mxGeometry x="581" y="160" width="80" height="80" as="geometry" />
        </mxCell>
        <mxCell id="pxlW1rMQ2wDPE4SaXr1n-109" value="receive&lt;br&gt;daily&lt;br&gt;issues&lt;br&gt;report" style="ellipse;whiteSpace=wrap;html=1;aspect=fixed;" vertex="1" parent="1">
          <mxGeometry x="666" y="160" width="80" height="80" as="geometry" />
        </mxCell>
        <mxCell id="pxlW1rMQ2wDPE4SaXr1n-111" value="" style="edgeStyle=none;noEdgeStyle=1;strokeColor=#990000;strokeWidth=2" edge="1" parent="1">
          <mxGeometry width="100" height="100" relative="1" as="geometry">
            <mxPoint x="237" y="289.23" as="sourcePoint" />
            <mxPoint x="317" y="289.23" as="targetPoint" />
          </mxGeometry>
        </mxCell>
        <mxCell id="pxlW1rMQ2wDPE4SaXr1n-112" value="supply&#xa;requisitions" style="text;spacingTop=-5;align=center" vertex="1" parent="1">
          <mxGeometry x="258" y="259.23" width="30" height="20" as="geometry" />
        </mxCell>
        <mxCell id="pxlW1rMQ2wDPE4SaXr1n-113" value="" style="edgeStyle=none;noEdgeStyle=1;strokeColor=#990000;strokeWidth=2" edge="1" parent="1">
          <mxGeometry width="100" height="100" relative="1" as="geometry">
            <mxPoint x="318" y="289.23" as="sourcePoint" />
            <mxPoint x="398" y="289.23" as="targetPoint" />
          </mxGeometry>
        </mxCell>
        <mxCell id="pxlW1rMQ2wDPE4SaXr1n-114" value="requisitions&#xa;copy" style="text;spacingTop=-5;align=center" vertex="1" parent="1">
          <mxGeometry x="339" y="259.23" width="30" height="20" as="geometry" />
        </mxCell>
        <mxCell id="pxlW1rMQ2wDPE4SaXr1n-115" value="" style="edgeStyle=none;noEdgeStyle=1;strokeColor=#990000;strokeWidth=2" edge="1" parent="1">
          <mxGeometry width="100" height="100" relative="1" as="geometry">
            <mxPoint x="405.5" y="289.23" as="sourcePoint" />
            <mxPoint x="485.5" y="289.23" as="targetPoint" />
          </mxGeometry>
        </mxCell>
        <mxCell id="pxlW1rMQ2wDPE4SaXr1n-116" value="Inventory &#xa;records" style="text;spacingTop=-5;align=center" vertex="1" parent="1">
          <mxGeometry x="426.5" y="259.23" width="30" height="20" as="geometry" />
        </mxCell>
        <mxCell id="pxlW1rMQ2wDPE4SaXr1n-117" value="" style="edgeStyle=none;noEdgeStyle=1;strokeColor=#990000;strokeWidth=2" edge="1" parent="1">
          <mxGeometry width="100" height="100" relative="1" as="geometry">
            <mxPoint x="569.5" y="289.23" as="sourcePoint" />
            <mxPoint x="649.5" y="289.23" as="targetPoint" />
          </mxGeometry>
        </mxCell>
        <mxCell id="pxlW1rMQ2wDPE4SaXr1n-118" value="backorder &#xa;notice" style="text;spacingTop=-5;align=center" vertex="1" parent="1">
          <mxGeometry x="590.5" y="259.23" width="30" height="20" as="geometry" />
        </mxCell>
        <mxCell id="pxlW1rMQ2wDPE4SaXr1n-119" value="" style="edgeStyle=none;noEdgeStyle=1;strokeColor=#990000;strokeWidth=2" edge="1" parent="1">
          <mxGeometry width="100" height="100" relative="1" as="geometry">
            <mxPoint x="237" y="319.23" as="sourcePoint" />
            <mxPoint x="317" y="319.23" as="targetPoint" />
          </mxGeometry>
        </mxCell>
        <mxCell id="pxlW1rMQ2wDPE4SaXr1n-120" value="backorder &#xa;request" style="text;spacingTop=-5;align=center" vertex="1" parent="1">
          <mxGeometry x="258" y="289.23" width="30" height="10" as="geometry" />
        </mxCell>
        <mxCell id="pxlW1rMQ2wDPE4SaXr1n-121" value="" style="edgeStyle=none;noEdgeStyle=1;strokeColor=#990000;strokeWidth=2" edge="1" parent="1">
          <mxGeometry width="100" height="100" relative="1" as="geometry">
            <mxPoint x="487" y="289.23" as="sourcePoint" />
            <mxPoint x="567" y="289.23" as="targetPoint" />
          </mxGeometry>
        </mxCell>
        <mxCell id="pxlW1rMQ2wDPE4SaXr1n-122" value="stock&#xa;items" style="text;spacingTop=-5;align=center" vertex="1" parent="1">
          <mxGeometry x="508" y="259.23" width="30" height="20" as="geometry" />
        </mxCell>
        <mxCell id="pxlW1rMQ2wDPE4SaXr1n-125" value="" style="edgeStyle=none;noEdgeStyle=1;strokeColor=#990000;strokeWidth=2" edge="1" parent="1">
          <mxGeometry width="100" height="100" relative="1" as="geometry">
            <mxPoint x="321" y="319.23" as="sourcePoint" />
            <mxPoint x="401" y="319.23" as="targetPoint" />
          </mxGeometry>
        </mxCell>
        <mxCell id="pxlW1rMQ2wDPE4SaXr1n-126" value="purchase&#xa;orders" style="text;spacingTop=-5;align=center" vertex="1" parent="1">
          <mxGeometry x="342" y="289.23" width="30" height="20" as="geometry" />
        </mxCell>
        <mxCell id="pxlW1rMQ2wDPE4SaXr1n-127" value="" style="edgeStyle=none;noEdgeStyle=1;strokeColor=#990000;strokeWidth=2" edge="1" parent="1">
          <mxGeometry width="100" height="100" relative="1" as="geometry">
            <mxPoint x="402" y="319.23" as="sourcePoint" />
            <mxPoint x="482" y="319.23" as="targetPoint" />
          </mxGeometry>
        </mxCell>
        <mxCell id="pxlW1rMQ2wDPE4SaXr1n-128" value="new inventory&#xa;items" style="text;spacingTop=-5;align=center" vertex="1" parent="1">
          <mxGeometry x="423" y="289.23" width="30" height="20" as="geometry" />
        </mxCell>
        <mxCell id="pxlW1rMQ2wDPE4SaXr1n-133" value="" style="edgeStyle=none;noEdgeStyle=1;strokeColor=#990000;strokeWidth=2" edge="1" parent="1">
          <mxGeometry width="100" height="100" relative="1" as="geometry">
            <mxPoint x="486" y="319.23" as="sourcePoint" />
            <mxPoint x="566" y="319.23" as="targetPoint" />
          </mxGeometry>
        </mxCell>
        <mxCell id="pxlW1rMQ2wDPE4SaXr1n-134" value="daily receiving&#xa;report" style="text;spacingTop=-5;align=center" vertex="1" parent="1">
          <mxGeometry x="507" y="289.23" width="30" height="20" as="geometry" />
        </mxCell>
        <mxCell id="pxlW1rMQ2wDPE4SaXr1n-135" value="" style="edgeStyle=none;noEdgeStyle=1;strokeColor=#990000;strokeWidth=2" edge="1" parent="1">
          <mxGeometry width="100" height="100" relative="1" as="geometry">
            <mxPoint x="570" y="319.23" as="sourcePoint" />
            <mxPoint x="650" y="319.23" as="targetPoint" />
          </mxGeometry>
        </mxCell>
        <mxCell id="pxlW1rMQ2wDPE4SaXr1n-136" value="daily issue&#xa;report" style="text;spacingTop=-5;align=center" vertex="1" parent="1">
          <mxGeometry x="591" y="289.23" width="30" height="20" as="geometry" />
        </mxCell>
        <mxCell id="pxlW1rMQ2wDPE4SaXr1n-139" value="employees" style="html=1;dashed=0;whiteSpace=wrap;shape=partialRectangle;right=0;" vertex="1" parent="1">
          <mxGeometry x="232" y="365" width="100" height="30" as="geometry" />
        </mxCell>
        <mxCell id="pxlW1rMQ2wDPE4SaXr1n-140" value="store clerk" style="html=1;dashed=0;whiteSpace=wrap;shape=partialRectangle;right=0;" vertex="1" parent="1">
          <mxGeometry x="342" y="365" width="100" height="30" as="geometry" />
        </mxCell>
        <mxCell id="pxlW1rMQ2wDPE4SaXr1n-141" value="supplier" style="html=1;dashed=0;whiteSpace=wrap;shape=partialRectangle;right=0;" vertex="1" parent="1">
          <mxGeometry x="452" y="365" width="100" height="30" as="geometry" />
        </mxCell>
        <mxCell id="pxlW1rMQ2wDPE4SaXr1n-142" value="warehouse manager" style="html=1;dashed=0;whiteSpace=wrap;shape=partialRectangle;right=0;" vertex="1" parent="1">
          <mxGeometry x="566" y="365" width="100" height="30" as="geometry" />
        </mxCell>
      </root>
    </mxGraphModel>
  </diagram>
</mxfile>
